<svg xmlns="http://www.w3.org/2000/svg" fill="none" viewBox="0 0 100 100"><g filter="url(#prefix__filter0_dd)"><circle cx="50" cy="50" r="34" fill="#F9FAFB"/></g><path fill="#252F3F" d="M51.063 34.092c0 .605-.468 1.08-1.063 1.08a1.052 1.052 0 01-1.063-1.037V29.08c0-.605.467-1.08 1.063-1.08.595 0 1.063.475 1.063 1.08v5.012z"/><path fill="#252F3F" fill-rule="evenodd" d="M65.135 44.85l2.763 5.832c.128.302.128.605.043.907-.128.303-.34.519-.638.605l-2.083.734v9.98c0 .432-.298.821-.723.994L50.34 68.957a.342.342 0 01-.086.028.638.638 0 01-.05.008C50.14 69 50.07 69 50 69c-.128 0-.212 0-.34-.043l-14.157-5.055a1.022 1.022 0 01-.723-.994V52.885l-2.083-.734c-.297-.087-.51-.303-.638-.605-.085-.26-.085-.605.043-.864l2.806-5.833a1.19 1.19 0 01.363-.44.884.884 0 01.232-.121l14.157-5.055a.924.924 0 01.68 0l14.2 5.055c.087.044.169.094.245.15a1.072 1.072 0 01.35.412zm-4.167.474L50 41.394l-10.968 3.888L50 49.213l10.968-3.889zm-12.414 5.617l-12.159-4.32-1.87 3.888 12.159 4.32 1.87-3.888zm-1.657 6.264l-9.991-3.542v8.425l12.031 4.32V55.002l-.765 1.642c-.17.389-.552.605-.935.605-.066 0-.12 0-.174-.006a.746.746 0 01-.166-.038zm4.166 9.29l12.031-4.321v-8.468l-9.99 3.543c-.085.043-.213.043-.34.043-.383 0-.766-.216-.936-.605l-.765-1.642v11.45zm.382-15.51l1.871 3.888 12.159-4.32-1.87-3.89-12.16 4.321z" clip-rule="evenodd"/><path fill="#252F3F" d="M57.04 37.295c.095.026.189.037.273.037.34 0 .68-.173.892-.519l2.636-4.277c.297-.518.17-1.166-.34-1.469-.51-.302-1.148-.172-1.445.346L56.42 35.69c-.298.475-.128 1.167.34 1.47.086.065.184.108.28.135zM42.645 37.332c-.34 0-.68-.173-.893-.519l-2.635-4.277c-.298-.475-.17-1.166.34-1.469.468-.302 1.148-.172 1.445.346l2.636 4.277c.298.475.17 1.167-.34 1.47a.925.925 0 01-.553.172z"/><defs><filter id="prefix__filter0_dd" width="74" height="74" x="13" y="14" color-interpolation-filters="sRGB" filterUnits="userSpaceOnUse"><feFlood flood-opacity="0" result="BackgroundImageFix"/><feColorMatrix in="SourceAlpha" values="0 0 0 0 0 0 0 0 0 0 0 0 0 0 0 0 0 0 127 0"/><feOffset dy="1"/><feGaussianBlur stdDeviation="1"/><feColorMatrix values="0 0 0 0 0 0 0 0 0 0 0 0 0 0 0 0 0 0 0.06 0"/><feBlend in2="BackgroundImageFix" result="effect1_dropShadow"/><feColorMatrix in="SourceAlpha" values="0 0 0 0 0 0 0 0 0 0 0 0 0 0 0 0 0 0 127 0"/><feOffset dy="1"/><feGaussianBlur stdDeviation="1.5"/><feColorMatrix values="0 0 0 0 0 0 0 0 0 0 0 0 0 0 0 0 0 0 0.1 0"/><feBlend in2="effect1_dropShadow" result="effect2_dropShadow"/><feBlend in="SourceGraphic" in2="effect2_dropShadow" result="shape"/></filter></defs></svg>
