<svg xmlns="http://www.w3.org/2000/svg" fill="none" viewBox="0 0 100 100">
  <path fill="#FAFAFA" d="M0 0h100v100H0z" />
  <path fill="#E5E5E5" d="M47.058 36.105a1.5 1.5 0 00-1.283-.028l-6.855 3.064 14.793 7.397L61 43.076l-13.94-6.97z" />
  <path
    fill="#262626"
    fill-rule="evenodd"
    d="M44.958 34.251a3.5 3.5 0 012.994.065l14.226 7.114a3.5 3.5 0 011.935 3.13v17.667a3.5 3.5 0 01-2.072 3.196l-7 3.128a3.5 3.5 0 01-2.993-.065l-14.227-7.114a3.5 3.5 0 01-1.934-3.13V40.575a3.5 3.5 0 012.072-3.196l7-3.128zm2.1 1.854a1.5 1.5 0 00-1.284-.028l-6.855 3.064 14.794 7.397 7.285-3.462-13.94-6.97zm15.055 8.655l-7.412 3.522v18.23l6.524-2.915a1.5 1.5 0 00.888-1.37V44.76zm-9.412 21.816V48.268l-14.814-7.407v17.38a1.5 1.5 0 00.829 1.343L52.7 66.576z"
    clip-rule="evenodd"
  />
  <path
    fill="#262626"
    fill-rule="evenodd"
    d="M41.77 46.782c.495.244.808.881.699 1.422-.3 1.49.562 3.241 1.924 3.913 1.362.672 2.71.009 3.009-1.48.109-.541.598-.782 1.094-.538.495.244.808.881.7 1.423-.518 2.572-2.844 3.716-5.197 2.556-2.353-1.16-3.841-4.186-3.324-6.758.11-.542.599-.782 1.094-.538z"
    clip-rule="evenodd"
  />
  <path
    stroke="#262626"
    stroke-linecap="round"
    stroke-linejoin="round"
    stroke-width="2"
    d="M49 23.6v2.548m16.658 4.17l-1.85 1.802m8.75 14.418h-2.617m-41.88 0h-2.618m8.75-14.418l-1.85-1.802"
  />
</svg>
